RBDS018runT35_grf
version=1
nRows=21
nColumns=19
inDegrees=no
endheader
time	ground_force_r_vx	ground_force_r_vy	ground_force_r_vz	ground_force_r_px	ground_force_r_py	ground_force_r_pz	ground_force_r_mx	ground_force_r_my	ground_force_r_mz	ground_force_l_vx	ground_force_l_vy	ground_force_l_vz	ground_force_l_px	ground_force_l_py	ground_force_l_pz	ground_force_l_mx	ground_force_l_my	ground_force_l_mz
      0.00000000	      0.00000000	      0.00000000	      0.00000000	      0.00000000	      0.00000000	      0.00000000	      0.00000000	      0.00000000	      0.00000000	    105.38308322	   1805.73361234	     43.12139309	      1.95651071	      0.00000000	      1.00409216	     -0.00000000	     11.52298539	      0.00000000
      0.00100000	      0.00000000	      0.00000000	      0.00000000	      0.00000000	      0.00000000	      0.00000000	      0.00000000	      0.00000000	      0.00000000	    111.94222170	   1789.77598148	     41.73538397	      1.95432093	      0.00000000	      1.00418493	     -0.00000000	     11.20211015	     -0.00000000
      0.00200000	      0.00000000	      0.00000000	      0.00000000	      0.00000000	      0.00000000	      0.00000000	      0.00000000	      0.00000000	      0.00000000	    118.50136018	   1773.81835062	     40.34937486	      1.95213115	      0.00000000	      1.00427769	     -0.00000000	     10.88123492	     -0.00000000
      0.00300000	      0.00000000	      0.00000000	      0.00000000	      0.00000000	      0.00000000	      0.00000000	      0.00000000	      0.00000000	      0.00000000	    125.06049865	   1757.86071976	     38.96336575	      1.94994137	      0.00000000	      1.00437046	     -0.00000000	     10.56035969	     -0.00000000
      0.00400000	      0.00000000	      0.00000000	      0.00000000	      0.00000000	      0.00000000	      0.00000000	      0.00000000	      0.00000000	      0.00000000	    131.56867910	   1741.81318208	     37.56857471	      1.94771668	      0.00000000	      1.00446453	     -0.00000000	     10.24223460	     -0.00000000
      0.00500000	      0.00000000	      0.00000000	      0.00000000	      0.00000000	      0.00000000	      0.00000000	      0.00000000	      0.00000000	      0.00000000	    138.05138054	   1725.72069099	     36.16939272	      1.94547454	      0.00000000	      1.00455926	     -0.00000000	      9.92548458	     -0.00000000
      0.00600000	      0.00000000	      0.00000000	      0.00000000	      0.00000000	      0.00000000	      0.00000000	      0.00000000	      0.00000000	      0.00000000	    144.53408197	   1709.62819990	     34.77021072	      1.94323240	      0.00000000	      1.00465399	     -0.00000000	      9.60873456	     -0.00000000
      0.00700000	      0.00000000	      0.00000000	      0.00000000	      0.00000000	      0.00000000	      0.00000000	      0.00000000	      0.00000000	      0.00000000	    150.95652190	   1693.46580739	     33.36782440	      1.94096909	      0.00000000	      1.00474910	     -0.00000000	      9.29480957	     -0.00000000
      0.00800000	      0.00000000	      0.00000000	      0.00000000	      0.00000000	      0.00000000	      0.00000000	      0.00000000	      0.00000000	      0.00000000	    157.25843880	   1677.16361205	     31.95902943	      1.93866343	      0.00000000	      1.00484499	     -0.00000000	      8.98653462	     -0.00000000
      0.00900000	      0.00000000	      0.00000000	      0.00000000	      0.00000000	      0.00000000	      0.00000000	      0.00000000	      0.00000000	      0.00000000	    163.56035570	   1660.86141672	     30.55023446	      1.93635778	      0.00000000	      1.00494088	     -0.00000000	      8.67825968	     -0.00000000
      0.01000000	      0.00000000	      0.00000000	      0.00000000	      0.00000000	      0.00000000	      0.00000000	      0.00000000	      0.00000000	      0.00000000	    169.86227260	   1644.55922138	     29.14143949	      1.93405213	      0.00000000	      1.00503677	     -0.00000000	      8.36998473	     -0.00000000
      0.01100000	      0.00000000	      0.00000000	      0.00000000	      0.00000000	      0.00000000	      0.00000000	      0.00000000	      0.00000000	      0.00000000	    175.87990909	   1627.96988404	     27.72740212	      1.93167404	      0.00000000	      1.00513292	     -0.00000000	      8.07398141	     -0.00000000
      0.01200000	      0.00000000	      0.00000000	      0.00000000	      0.00000000	      0.00000000	      0.00000000	      0.00000000	      0.00000000	      0.00000000	    181.89754557	   1611.38054670	     26.31336475	      1.92929594	      0.00000000	      1.00522906	     -0.00000000	      7.77797808	     -0.00000000
      0.01300000	      0.00000000	      0.00000000	      0.00000000	      0.00000000	      0.00000000	      0.00000000	      0.00000000	      0.00000000	      0.00000000	    187.91518205	   1594.79120936	     24.89932737	      1.92691784	      0.00000000	      1.00532521	     -0.00000000	      7.48197476	     -0.00000000
      0.01400000	      0.00000000	      0.00000000	      0.00000000	      0.00000000	      0.00000000	      0.00000000	      0.00000000	      0.00000000	      0.00000000	    193.67662198	   1577.96081673	     23.48540865	      1.92448772	      0.00000000	      1.00542084	     -0.00000000	      7.19621420	     -0.00000000
      0.01500000	      0.00000000	      0.00000000	      0.00000000	      0.00000000	      0.00000000	      0.00000000	      0.00000000	      0.00000000	      0.00000000	    199.30996363	   1561.00989645	     22.07154926	      1.92203157	      0.00000000	      1.00551621	     -0.00000000	      6.91557503	     -0.00000000
      0.01600000	      0.00000000	      0.00000000	      0.00000000	      0.00000000	      0.00000000	      0.00000000	      0.00000000	      0.00000000	      0.00000000	    204.94330527	   1544.05897617	     20.65768987	      1.91957543	      0.00000000	      1.00561159	     -0.00000000	      6.63493586	     -0.00000000
      0.01700000	      0.00000000	      0.00000000	      0.00000000	      0.00000000	      0.00000000	      0.00000000	      0.00000000	      0.00000000	      0.00000000	    210.41720613	   1526.96548977	     19.24611078	      1.91709283	      0.00000000	      1.00570633	     -0.00000000	      6.36017960	     -0.00000000
      0.01800000	      0.00000000	      0.00000000	      0.00000000	      0.00000000	      0.00000000	      0.00000000	      0.00000000	      0.00000000	      0.00000000	    215.57222539	   1509.58687111	     17.83909232	      1.91455730	      0.00000000	      1.00579980	     -0.00000000	      6.09718917	     -0.00000000
      0.01900000	      0.00000000	      0.00000000	      0.00000000	      0.00000000	      0.00000000	      0.00000000	      0.00000000	      0.00000000	      0.00000000	    220.72724465	   1492.20825245	     16.43207385	      1.91202177	      0.00000000	      1.00589327	     -0.00000000	      5.83419874	     -0.00000000
      0.02000000	      0.00000000	      0.00000000	      0.00000000	      0.00000000	      0.00000000	      0.00000000	      0.00000000	      0.00000000	      0.00000000	    225.88226391	   1474.82963379	     15.02505538	      1.90948625	      0.00000000	      1.00598674	     -0.00000000	      5.57120831	     -0.00000000
